<svg
  xmlns="http://www.w3.org/2000/svg"
  width="24"
  height="24"
  viewBox="0 0 1024 804.571"
  fill="none"
>
  <defs>
    <style>.cls-1{fill:#0058ff;}</style>
  </defs>
  <g id="Layer_2" data-name="Layer 2">
    <g id="Layer_1-2" data-name="Layer 1">
      <path class="cls-1" d="M0 146.286Q0 85.714 42.857 42.857 85.714 0 146.286 0h731.428Q938.286 0 981.143 42.857 1024 85.714 1024 146.286v146.285h-73.143v-146.285Q950.857 115.429 929.714 94.286 908.571 73.143 877.714 73.143h-731.428Q115.429 73.143 94.286 94.286 73.143 115.429 73.143 146.286v512Q73.143 689.143 94.286 710.286 115.429 731.429 146.286 731.429h731.428Q908.571 731.429 929.714 710.286 950.857 689.143 950.857 658.286v-256h73.143v256Q1024 718.857 981.143 761.714 938.286 804.571 877.714 804.571h-731.428Q85.714 804.571 42.857 761.714 0 718.857 0 658.286zM36.571 219.429h963.429v73.142h-963.429zM182.857 402.286h329.143v73.143h-329.143z"/>
    </g>
  </g>
</svg>